<?xml version="1.0" encoding="utf-8"?>
<!-- Generator: Adobe Illustrator 23.0.1, SVG Export Plug-In . SVG Version: 6.00 Build 0)  -->
<svg version="1.1" xmlns="http://www.w3.org/2000/svg" xmlns:xlink="http://www.w3.org/1999/xlink" x="0px" y="0px"
	 viewBox="0 0 512 512" style="enable-background:new 0 0 512 512;" xml:space="preserve">
<style type="text/css">
	.st0{fill:#333333;}
	.st1{fill:none;stroke:#333333;stroke-width:32;stroke-linecap:round;stroke-linejoin:round;stroke-miterlimit:10;}
</style>
<g id="Layer_1">
</g>
<g id="Layer_2">
	<g>
		<path class="st0" d="M433.3,127.32h-81.56l-20.17-46.96c-2.93-6.82-9.64-11.25-17.07-11.25h-117c-7.43,0-14.14,4.42-17.07,11.25
			l-20.17,46.96H78.7c-19.44,0-35.2,15.76-35.2,35.2v245.18c0,19.44,15.76,35.2,35.2,35.2h354.6c19.44,0,35.2-15.76,35.2-35.2
			V162.52C468.5,143.07,452.74,127.32,433.3,127.32z M256,383.4c-54.29,0-98.3-44.01-98.3-98.3c0-54.29,44.01-98.3,98.3-98.3
			s98.3,44.01,98.3,98.3C354.3,339.39,310.29,383.4,256,383.4z M408.49,203.06h-20.43c-8.84,0-16-7.16-16-16s7.16-16,16-16h20.43
			c8.84,0,16,7.16,16,16S417.33,203.06,408.49,203.06z"/>
	</g>
</g>
</svg>
