<?xml version="1.0" encoding="utf-8"?>
<!-- Generator: Adobe Illustrator 23.0.1, SVG Export Plug-In . SVG Version: 6.00 Build 0)  -->
<svg version="1.1" xmlns="http://www.w3.org/2000/svg" xmlns:xlink="http://www.w3.org/1999/xlink" x="0px" y="0px"
	 viewBox="0 0 512 512" style="enable-background:new 0 0 512 512;" xml:space="preserve">
<style type="text/css">
	.st0{fill:#333333;}
	.st1{fill:none;stroke:#333333;stroke-width:32;stroke-linecap:round;stroke-linejoin:round;stroke-miterlimit:10;}
</style>
<g id="Layer_1">
</g>
<g id="Layer_2">
	<g>
		<path class="st0" d="M256,43.5C138.64,43.5,43.5,138.64,43.5,256c0,117.36,95.14,212.5,212.5,212.5S468.5,373.36,468.5,256
			C468.5,138.64,373.36,43.5,256,43.5z M271.92,392.38c-0.05,0.52-0.13,1.04-0.23,1.55c-0.11,0.51-0.24,1.02-0.39,1.52
			s-0.33,1-0.53,1.48c-0.2,0.48-0.42,0.96-0.66,1.41c-0.25,0.47-0.52,0.92-0.81,1.35c-0.29,0.44-0.6,0.86-0.93,1.26
			c-0.33,0.41-0.69,0.8-1.06,1.17s-0.76,0.73-1.17,1.06c-0.4,0.33-0.82,0.64-1.26,0.93c-0.43,0.29-0.89,0.56-1.35,0.8
			c-0.45,0.25-0.93,0.47-1.41,0.67c-0.48,0.2-0.98,0.38-1.47,0.53c-0.5,0.15-1.01,0.28-1.52,0.39c-0.52,0.1-1.04,0.18-1.56,0.23
			c-0.52,0.05-1.05,0.08-1.57,0.08c-0.52,0-1.05-0.03-1.57-0.08c-0.52-0.05-1.04-0.13-1.56-0.23c-0.51-0.11-1.02-0.24-1.52-0.39
			c-0.49-0.15-0.99-0.33-1.47-0.53c-0.48-0.2-0.96-0.42-1.42-0.67c-0.46-0.24-0.91-0.51-1.34-0.8c-0.44-0.29-0.86-0.6-1.27-0.93
			c-0.4-0.33-0.79-0.69-1.16-1.06s-0.73-0.76-1.06-1.17c-0.33-0.4-0.64-0.82-0.93-1.26c-0.29-0.43-0.56-0.88-0.81-1.35
			c-0.24-0.45-0.47-0.93-0.66-1.41c-0.2-0.48-0.38-0.98-0.53-1.48c-0.16-0.5-0.28-1.01-0.39-1.52c-0.1-0.51-0.18-1.03-0.23-1.55
			c-0.05-0.52-0.08-1.05-0.08-1.57c0-0.53,0.03-1.05,0.08-1.58c0.05-0.51,0.13-1.04,0.23-1.55c0.11-0.51,0.23-1.02,0.39-1.52
			c0.15-0.5,0.33-0.99,0.53-1.47c0.19-0.48,0.42-0.96,0.66-1.42c0.25-0.46,0.52-0.91,0.81-1.34c0.29-0.44,0.6-0.86,0.93-1.27
			c0.33-0.4,0.69-0.8,1.06-1.17c0.37-0.36,0.76-0.72,1.16-1.05c0.41-0.33,0.83-0.65,1.27-0.93c0.43-0.29,0.88-0.56,1.34-0.81
			c0.46-0.24,0.94-0.47,1.42-0.67c0.48-0.19,0.98-0.37,1.47-0.52c0.5-0.16,1.01-0.29,1.52-0.39c0.52-0.1,1.04-0.18,1.56-0.23
			c1.04-0.11,2.1-0.11,3.14,0c0.52,0.05,1.04,0.13,1.56,0.23c0.51,0.1,1.02,0.23,1.52,0.39c0.49,0.15,0.99,0.33,1.47,0.52
			c0.48,0.2,0.96,0.43,1.42,0.67c0.46,0.25,0.91,0.52,1.34,0.81c0.44,0.28,0.86,0.6,1.27,0.93c0.4,0.33,0.79,0.69,1.16,1.05
			c0.37,0.37,0.73,0.77,1.06,1.17c0.33,0.41,0.64,0.83,0.93,1.27c0.29,0.43,0.56,0.88,0.81,1.34c0.24,0.46,0.46,0.94,0.66,1.42
			c0.2,0.48,0.38,0.97,0.53,1.47s0.28,1.01,0.39,1.52c0.1,0.51,0.18,1.04,0.23,1.55c0.05,0.53,0.08,1.05,0.08,1.58
			C272,391.33,271.97,391.86,271.92,392.38z M302.5,283.91c-18.82,10.52-30.5,30.05-30.5,50.97c0,8.84-7.16,16.04-16,16.04
			s-16-7.12-16-15.96c0-32.59,17.97-62.82,46.89-78.99c20.6-11.52,33.05-33.33,32.5-56.93c-0.78-33.32-28.53-61.06-61.85-61.85
			c-17.24-0.4-33.52,6-45.84,18.02c-12.32,12.03-19.11,28.14-19.11,45.36c0,8.84-7.16,16-16,16s-16-7.16-16-16
			c0-25.91,10.21-50.15,28.75-68.25c18.53-18.1,43.02-27.73,68.95-27.12c24.5,0.58,47.62,10.52,65.1,27.99
			c17.47,17.47,27.41,40.59,27.99,65.09C352.21,233.79,333.49,266.59,302.5,283.91z"/>
	</g>
</g>
</svg>
