<?xml version="1.0" encoding="UTF-8" standalone="no"?>
<!-- Created with Inkscape (http://www.inkscape.org/) -->

<svg
   width="7.657454in"
   height="4.6687317in"
   viewBox="0 0 194.49933 118.58578"
   version="1.1"
   id="svg5"
   inkscape:version="1.1.2 (0a00cf5339, 2022-02-04)"
   sodipodi:docname="kanji_cam_logo.svg"
   xmlns:inkscape="http://www.inkscape.org/namespaces/inkscape"
   xmlns:sodipodi="http://sodipodi.sourceforge.net/DTD/sodipodi-0.dtd"
   xmlns="http://www.w3.org/2000/svg"
   xmlns:svg="http://www.w3.org/2000/svg">
  <sodipodi:namedview
     id="namedview7"
     pagecolor="#000000"
     bordercolor="#666666"
     borderopacity="1.0"
     inkscape:pageshadow="2"
     inkscape:pageopacity="0"
     inkscape:pagecheckerboard="0"
     inkscape:document-units="mm"
     showgrid="false"
     units="in"
     width="10in"
     inkscape:zoom="0.73940798"
     inkscape:cx="363.80456"
     inkscape:cy="179.87363"
     inkscape:window-width="1920"
     inkscape:window-height="1008"
     inkscape:window-x="0"
     inkscape:window-y="0"
     inkscape:window-maximized="1"
     inkscape:current-layer="layer1"
     inkscape:snap-midpoints="true"
     inkscape:snap-smooth-nodes="true"
     inkscape:object-paths="true"
     inkscape:snap-intersection-paths="true"
     inkscape:snap-object-midpoints="true"
     inkscape:snap-center="true"
     inkscape:snap-text-baseline="true"
     inkscape:snap-page="true"
     inkscape:snap-nodes="true"
     inkscape:snap-others="false" />
  <defs
     id="defs2" />
  <g
     inkscape:label="Layer 1"
     inkscape:groupmode="layer"
     id="layer1"
     transform="translate(-24.669619,-44.798311)">
    <g
       aria-label="Kanji Cam"
       id="text6105"
       style="font-size:80.9068px;line-height:1.25;fill:#ffffff;stroke-width:0.842778">
      <path
         d="m 58.974102,48.924558 q -3.964433,5.906197 -8.737934,11.731486 -4.692595,5.82529 -10.194257,11.650579 2.589018,2.184484 5.501662,5.097129 2.912645,2.912644 5.663476,6.391637 2.831738,3.398085 5.258942,7.281612 2.508111,3.883526 4.207154,7.928866 h -7.524332 q -2.02267,-3.721713 -4.368968,-7.281612 -2.346297,-3.559899 -5.016221,-6.634357 -2.589018,-3.074459 -5.420756,-5.58257 -2.750831,-2.589017 -5.582569,-4.449874 V 99.005867 H 26.125942 V 48.924558 h 6.634357 v 22.330277 q 5.258942,-5.420756 10.032443,-11.326952 4.854408,-5.906196 8.495214,-11.003325 z"
         style="font-family:'Ubuntu Mono';-inkscape-font-specification:'Ubuntu Mono';fill:#ffffff"
         id="path26396" />
      <path
         d="m 82.032387,94.232366 q 2.508111,0 4.449874,-0.161814 2.02267,-0.161813 3.317179,-0.404534 V 82.50088 q -1.294509,-0.404534 -3.155365,-0.647254 -1.77995,-0.242721 -3.80262,-0.242721 -1.860856,0 -3.640806,0.323627 -1.779949,0.242721 -3.155365,0.970882 -1.375415,0.728161 -2.26539,1.941763 -0.889975,1.132695 -0.889975,2.912645 0,3.640806 2.427204,5.097128 2.508111,1.375416 6.715264,1.375416 z M 81.385133,60.575137 q 4.207154,0 7.038892,1.051789 2.912644,1.051788 4.692594,2.912644 1.779949,1.860857 2.508111,4.530781 0.728161,2.669925 0.728161,5.82529 v 23.462972 q -2.346297,0.404534 -6.229824,0.970881 -3.802619,0.566348 -7.847959,0.566348 -3.074459,0 -5.987103,-0.566348 -2.912645,-0.485441 -5.178036,-1.779949 -2.26539,-1.375416 -3.640805,-3.721713 -1.375416,-2.346297 -1.375416,-5.987103 0,-3.236272 1.375416,-5.420756 1.456322,-2.26539 3.640805,-3.640806 2.265391,-1.375415 5.097129,-1.941763 2.912645,-0.647254 5.825289,-0.647254 3.964434,0 7.767053,0.889974 v -1.860856 q 0,-1.699043 -0.404534,-3.236272 -0.323627,-1.618136 -1.375415,-2.912645 -0.970882,-1.294509 -2.750832,-2.02267 -1.699042,-0.809068 -4.449874,-0.809068 -3.478992,0 -6.06801,0.485441 -2.589017,0.485441 -3.964433,0.970882 l -0.809068,-5.501663 q 1.375416,-0.647254 4.530781,-1.132695 3.236272,-0.485441 6.877078,-0.485441 z"
         style="font-family:'Ubuntu Mono';-inkscape-font-specification:'Ubuntu Mono';fill:#ffffff"
         id="path26393" />
      <path
         d="m 107.59878,62.516901 q 3.64081,-0.889975 7.20071,-1.375416 3.6408,-0.485441 6.79617,-0.485441 7.52433,0 11.32695,3.883526 3.88353,3.883527 3.88353,12.459648 v 22.006649 h -6.63436 V 78.21282 q 0,-3.640806 -0.64725,-5.906197 -0.64726,-2.26539 -1.86086,-3.478992 -1.1327,-1.294509 -2.83174,-1.77995 -1.61813,-0.485441 -3.5599,-0.485441 -1.61813,0 -3.47899,0.242721 -1.77995,0.161813 -3.47899,0.485441 v 31.715465 h -6.71527 z"
         style="font-family:'Ubuntu Mono';-inkscape-font-specification:'Ubuntu Mono';fill:#ffffff"
         id="path26390" />
      <path
         d="m 167.22694,55.639823 c -1.40238,0 -2.61598,-0.485441 -3.6408,-1.456323 -1.02482,-0.970881 -1.53723,-2.292359 -1.53723,-3.964433 0,-1.672074 0.51241,-2.993552 1.53723,-3.964433 1.02482,-0.970882 2.23842,-1.456323 3.6408,-1.456323 1.45633,0 2.66993,0.485441 3.64081,1.456323 1.02482,0.970881 1.53723,2.292359 1.53723,3.964433 0,1.672074 -0.51241,2.993552 -1.53723,3.964433 -0.97088,0.970882 -2.18448,1.456323 -3.64081,1.456323 z m -15.69592,11.407858 v -5.582569 h 21.84484 v 26.338673 c 0,2.589018 -0.37757,4.773501 -1.1327,6.553447 -0.70119,1.833887 -1.67207,3.31718 -2.91264,4.44988 -1.18663,1.132694 -2.58902,1.941758 -4.20715,2.427198 -1.5642,0.48544 -3.23628,0.72816 -5.01623,0.72816 -2.04963,0 -4.12624,-0.21575 -6.22982,-0.64725 -2.04964,-0.4315 -3.9914,-1.10573 -5.82529,-2.022668 l 2.02267,-5.66348 c 1.34845,0.647254 2.83174,1.186634 4.44987,1.61814 1.67208,0.48544 3.26325,0.72816 4.77351,0.72816 2.15751,0 3.93746,-0.566346 5.33984,-1.69904 1.40239,-1.07876 2.10358,-3.209306 2.10358,-6.39164 V 67.047681 Z"
         style="font-family:'Ubuntu Mono';-inkscape-font-specification:'Ubuntu Mono';fill:#ffffff"
         id="path26387"
         sodipodi:nodetypes="ssssscscscccscccsccccscscc" />
      <path
         d="m 199.67042,55.639823 q -2.10358,0 -3.64081,-1.456323 -1.53723,-1.456322 -1.53723,-3.964433 0,-2.508111 1.53723,-3.964433 1.53723,-1.456323 3.64081,-1.456323 2.18448,0 3.6408,1.456323 1.53723,1.456322 1.53723,3.964433 0,2.508111 -1.53723,3.964433 -1.45632,1.456323 -3.6408,1.456323 z m -1.69905,11.407858 h -10.84151 v -5.582569 h 17.47587 V 84.52355 q 0,5.582569 1.53723,7.524332 1.53723,1.860857 4.61169,1.860857 2.34629,0 4.28806,-0.566348 2.02267,-0.566348 3.15536,-1.213602 l 0.97088,5.663476 q -0.48544,0.24272 -1.37541,0.647254 -0.88998,0.323628 -2.10358,0.647255 -1.13269,0.323627 -2.58902,0.566347 -1.37541,0.242721 -2.91264,0.242721 -3.5599,0 -5.9062,-0.970882 -2.34629,-0.970881 -3.80262,-2.912645 -1.37541,-1.941763 -1.94176,-4.773501 -0.56635,-2.912645 -0.56635,-6.715264 z"
         style="font-family:'Ubuntu Mono';-inkscape-font-specification:'Ubuntu Mono';fill:#ffffff"
         id="path26384" />
      <path
         d="m 58.165034,160.22872 q -2.831738,1.61814 -6.06801,2.3463 -3.155365,0.80907 -6.796171,0.80907 -4.449874,0 -8.252493,-1.53723 -3.721713,-1.61814 -6.472544,-4.7735 -2.750832,-3.23627 -4.368968,-8.17159 -1.537229,-4.93531 -1.537229,-11.65058 0,-6.39163 1.618136,-11.24604 1.699043,-4.85441 4.530781,-8.17159 2.831738,-3.31718 6.634358,-5.01622 3.802619,-1.69904 8.090679,-1.69904 2.993552,0 6.06801,0.80906 3.155366,0.80907 6.148917,2.66993 l -1.941763,5.50166 q -5.339849,-3.07446 -10.032443,-3.07446 -3.317179,0 -5.987103,1.45633 -2.589018,1.37541 -4.449874,4.04534 -1.860857,2.66992 -2.912645,6.39163 -0.970882,3.72172 -0.970882,8.3334 0,5.17804 1.051789,8.98066 1.132695,3.80262 3.074458,6.31073 1.941763,2.50811 4.611688,3.72171 2.750831,1.2136 5.906196,1.2136 2.346297,0 4.935315,-0.56634 2.589017,-0.64726 5.339849,-2.18449 z"
         style="font-family:'Ubuntu Mono';-inkscape-font-specification:'Ubuntu Mono';fill:#ffffff"
         id="path26381" />
      <path
         d="m 82.032387,157.5588 q 2.508111,0 4.449874,-0.16181 2.02267,-0.16182 3.317179,-0.40454 v -11.16514 q -1.294509,-0.40453 -3.155365,-0.64725 -1.77995,-0.24272 -3.80262,-0.24272 -1.860856,0 -3.640806,0.32363 -1.779949,0.24272 -3.155365,0.97088 -1.375415,0.72816 -2.26539,1.94176 -0.889975,1.1327 -0.889975,2.91265 0,3.6408 2.427204,5.09712 2.508111,1.37542 6.715264,1.37542 z m -0.647254,-33.65723 q 4.207154,0 7.038892,1.05179 2.912644,1.05179 4.692594,2.91264 1.779949,1.86086 2.508111,4.53078 0.728161,2.66993 0.728161,5.82529 v 23.46298 q -2.346297,0.40453 -6.229824,0.97088 -3.802619,0.56635 -7.847959,0.56635 -3.074459,0 -5.987103,-0.56635 -2.912645,-0.48544 -5.178036,-1.77995 -2.26539,-1.37542 -3.640805,-3.72171 -1.375416,-2.3463 -1.375416,-5.98711 0,-3.23627 1.375416,-5.42075 1.456322,-2.26539 3.640805,-3.64081 2.265391,-1.37541 5.097129,-1.94176 2.912645,-0.64726 5.825289,-0.64726 3.964434,0 7.767053,0.88998 v -1.86086 q 0,-1.69904 -0.404534,-3.23627 -0.323627,-1.61814 -1.375415,-2.91265 -0.970882,-1.2945 -2.750832,-2.02267 -1.699042,-0.80906 -4.449874,-0.80906 -3.478992,0 -6.06801,0.48544 -2.589017,0.48544 -3.964433,0.97088 l -0.809068,-5.50166 q 1.375416,-0.64726 4.530781,-1.1327 3.236272,-0.48544 6.877078,-0.48544 z"
         style="font-family:'Ubuntu Mono';-inkscape-font-specification:'Ubuntu Mono';fill:#ffffff"
         id="path26378" />
      <path
         d="m 105.17158,125.84333 q 4.85441,-1.86085 9.14247,-1.86085 2.34629,0 4.36896,0.72816 2.10358,0.64725 3.5599,2.10358 3.479,-2.83174 7.44343,-2.83174 1.94176,0 3.64081,0.72816 1.77995,0.72816 3.07445,2.18448 1.37542,1.45632 2.18449,3.64081 0.80907,2.18448 0.80907,5.09713 v 26.69924 h -6.06801 v -26.86106 q 0,-2.91264 -1.29451,-4.44987 -1.29451,-1.53723 -3.23628,-1.53723 -0.97088,0 -2.02267,0.48544 -1.05178,0.48544 -1.94176,1.53723 0.48544,1.86086 0.48544,4.12625 v 12.21692 h -6.06801 v -12.29783 q 0,-2.83174 -0.88997,-4.44987 -0.88998,-1.61814 -3.47899,-1.61814 -1.61814,0 -3.64081,0.72816 v 32.12 h -6.06801 z"
         style="font-family:'Ubuntu Mono';-inkscape-font-specification:'Ubuntu Mono';fill:#ffffff"
         id="path26375" />
    </g>
    <g
       id="Layer_2"
       transform="matrix(0.16435372,0,0,0.14241501,141.29893,99.256543)"
       style="font-size:80.9068px;line-height:1.25;fill:#ffffff;stroke-width:0.842778">
      <g
         id="g7"
         style="fill:#ffffff">
        <path
           id="path27008"
           style="stroke-width:0.487325;fill:#ffffff"
           class="st0"
           d="m 656.72656,412.3418 c -4.61536,0 -8.78345,2.37836 -10.60351,6.05468 l -12.5293,25.27735 h -50.66406 c -12.07572,0 -21.86524,8.48346 -21.86524,18.94726 V 594.5918 c 0,10.4638 9.78952,18.94726 21.86524,18.94726 h 220.27148 c 12.07573,0 21.86524,-8.48346 21.86524,-18.94726 V 462.62109 c 0,-10.46918 -9.78951,-18.94726 -21.86524,-18.94726 h -50.66406 l -12.5293,-25.27735 c -1.82006,-3.67094 -5.98814,-6.05468 -10.60351,-6.05468 z m 24.75782,38.47851 a 78.74465,78.74465 0 0 1 78.74609,78.74414 78.74465,78.74465 0 0 1 -78.74609,78.7461 78.74465,78.74465 0 0 1 -78.74415,-78.7461 78.74465,78.74465 0 0 1 78.74415,-78.74414 z m 0,11.74219 a 67.003533,67.003533 0 0 0 -67.00196,67.00195 67.003533,67.003533 0 0 0 67.00196,67.00586 67.003533,67.003533 0 0 0 57.99414,-33.44336 57.526301,57.526299 0 0 1 -46.51368,23.96289 57.526301,57.526299 0 0 1 -57.52734,-57.52539 57.526301,57.526299 0 0 1 57.52734,-57.52734 57.526301,57.526299 0 0 1 45.50391,22.37305 67.003533,67.003533 0 0 0 -56.98437,-31.84766 z m 93.61328,4.6543 h 12.6914 c 5.49122,0 9.93946,3.85505 9.93946,8.61328 0,4.75823 -4.44824,8.61133 -9.93946,8.61133 h -12.6914 c -5.49122,0 -9.9375,-3.8531 -9.9375,-8.61133 0,-4.75823 4.44628,-8.61328 9.9375,-8.61328 z"
           transform="matrix(1.6098409,0,0,1.8578332,-859.72456,-696.95282)" />
      </g>
    </g>
    <text
       xml:space="preserve"
       style="font-size:20.5595px;line-height:1.25;font-family:sans-serif;fill:#ffffff;stroke-width:0.214161"
       x="172.58231"
       y="147.75238"
       id="text3471"><tspan
         sodipodi:role="line"
         id="tspan3469"
         style="font-style:normal;font-variant:normal;font-weight:normal;font-stretch:normal;font-family:IPAMincho;-inkscape-font-specification:IPAMincho;fill:#ffffff;stroke-width:0.214161"
         x="172.58231"
         y="147.75238">漢</tspan></text>
  </g>
</svg>
