<?xml version="1.0" encoding="UTF-8" standalone="no"?>
<!-- Created with Inkscape (http://www.inkscape.org/) -->

<svg
   width="3in"
   height="3in"
   viewBox="0 0 76.199999 76.199997"
   version="1.1"
   id="svg5"
   inkscape:version="1.1.2 (0a00cf5339, 2022-02-04)"
   sodipodi:docname="kanji_cam_icon.svg"
   xmlns:inkscape="http://www.inkscape.org/namespaces/inkscape"
   xmlns:sodipodi="http://sodipodi.sourceforge.net/DTD/sodipodi-0.dtd"
   xmlns:xlink="http://www.w3.org/1999/xlink"
   xmlns="http://www.w3.org/2000/svg"
   xmlns:svg="http://www.w3.org/2000/svg">
  <sodipodi:namedview
     id="namedview7"
     pagecolor="#000000"
     bordercolor="#666666"
     borderopacity="1.0"
     inkscape:pageshadow="2"
     inkscape:pageopacity="0"
     inkscape:pagecheckerboard="0"
     inkscape:document-units="mm"
     showgrid="false"
     units="in"
     width="10in"
     inkscape:zoom="0.73940798"
     inkscape:cx="160.93957"
     inkscape:cy="123.07143"
     inkscape:window-width="1920"
     inkscape:window-height="1008"
     inkscape:window-x="0"
     inkscape:window-y="0"
     inkscape:window-maximized="1"
     inkscape:current-layer="g1013"
     inkscape:snap-midpoints="true"
     inkscape:snap-smooth-nodes="true"
     inkscape:object-paths="true"
     inkscape:snap-intersection-paths="true"
     inkscape:snap-object-midpoints="true"
     inkscape:snap-center="true"
     inkscape:snap-text-baseline="true"
     inkscape:snap-page="true"
     inkscape:snap-nodes="true"
     inkscape:snap-others="false" />
  <defs
     id="defs2">
    <clipPath
       clipPathUnits="userSpaceOnUse"
       id="clipPath1015">
      <use
         x="0"
         y="0"
         xlink:href="#g1011"
         id="use1017" />
    </clipPath>
  </defs>
  <g
     inkscape:label="Layer 1"
     inkscape:groupmode="layer"
     id="layer1"
     transform="translate(-148.44831,-109.09877)">
    <g
       aria-label="Kanji Cam"
       id="text6105"
       style="font-size:80.9068px;line-height:1.25;fill:#ffffff;stroke-width:0.842778" />
    <g
       id="g1013"
       clip-path="url(#clipPath1015)"
       transform="translate(3.1747429,11.483281)">
      <g
         inkscape:label="Clip"
         id="g1011">
        <g
           id="Layer_2"
           transform="matrix(0.16435372,0,0,0.14241501,141.29893,99.256543)"
           style="font-size:80.9068px;line-height:1.25;fill:#ffffff;stroke-width:0.842778">
          <g
             id="g7"
             style="fill:#ffffff">
            <path
               id="path27008"
               style="fill:#ffffff;stroke-width:0.487325"
               class="st0"
               d="m 656.72656,412.3418 c -4.61536,0 -8.78345,2.37836 -10.60351,6.05468 l -12.5293,25.27735 h -50.66406 c -12.07572,0 -21.86524,8.48346 -21.86524,18.94726 V 594.5918 c 0,10.4638 9.78952,18.94726 21.86524,18.94726 h 220.27148 c 12.07573,0 21.86524,-8.48346 21.86524,-18.94726 V 462.62109 c 0,-10.46918 -9.78951,-18.94726 -21.86524,-18.94726 h -50.66406 l -12.5293,-25.27735 c -1.82006,-3.67094 -5.98814,-6.05468 -10.60351,-6.05468 z m 24.75782,38.47851 a 78.74465,78.74465 0 0 1 78.74609,78.74414 78.74465,78.74465 0 0 1 -78.74609,78.7461 78.74465,78.74465 0 0 1 -78.74415,-78.7461 78.74465,78.74465 0 0 1 78.74415,-78.74414 z m 0,11.74219 a 67.003533,67.003533 0 0 0 -67.00196,67.00195 67.003533,67.003533 0 0 0 67.00196,67.00586 67.003533,67.003533 0 0 0 57.99414,-33.44336 57.526301,57.526299 0 0 1 -46.51368,23.96289 57.526301,57.526299 0 0 1 -57.52734,-57.52539 57.526301,57.526299 0 0 1 57.52734,-57.52734 57.526301,57.526299 0 0 1 45.50391,22.37305 67.003533,67.003533 0 0 0 -56.98437,-31.84766 z m 93.61328,4.6543 h 12.6914 c 5.49122,0 9.93946,3.85505 9.93946,8.61328 0,4.75823 -4.44824,8.61133 -9.93946,8.61133 h -12.6914 c -5.49122,0 -9.9375,-3.8531 -9.9375,-8.61133 0,-4.75823 4.44628,-8.61328 9.9375,-8.61328 z"
               transform="matrix(1.6098409,0,0,1.8578332,-859.72456,-696.95282)" />
          </g>
        </g>
        <text
           xml:space="preserve"
           style="font-size:20.5595px;line-height:1.25;font-family:sans-serif;fill:#ffffff;stroke-width:0.214161"
           x="172.58231"
           y="147.75238"
           id="text3471"><tspan
             sodipodi:role="line"
             id="tspan3469"
             style="font-style:normal;font-variant:normal;font-weight:normal;font-stretch:normal;font-family:IPAMincho;-inkscape-font-specification:IPAMincho;fill:#ffffff;stroke-width:0.214161"
             x="172.58231"
             y="147.75238">漢</tspan></text>
      </g>
    </g>
  </g>
</svg>
