<?xml version="1.0" standalone="no"?>
<!DOCTYPE svg PUBLIC "-//W3C//DTD SVG 20010904//EN"
 "http://www.w3.org/TR/2001/REC-SVG-20010904/DTD/svg10.dtd">
<svg version="1.0" xmlns="http://www.w3.org/2000/svg"
 width="700.000000pt" height="700.000000pt" viewBox="0 0 700.000000 700.000000"
 preserveAspectRatio="xMidYMid meet">
<metadata>
Created by potrace 1.14, written by Peter Selinger 2001-2017
</metadata>
<g transform="translate(0.000000,700.000000) scale(0.100000,-0.100000)"
fill="#000000" stroke="none">
<path d="M2556 5935 c-65 -13 -135 -54 -168 -97 -13 -18 -94 -173 -178 -345
l-154 -312 -681 -4 c-749 -3 -707 0 -835 -68 -117 -62 -217 -193 -239 -311
-11 -63 -12 -3266 0 -3343 28 -187 190 -342 404 -386 47 -9 663 -12 2790 -12
1502 0 2753 3 2780 7 64 10 168 51 225 89 105 71 181 186 199 298 12 72 11
3283 0 3345 -22 121 -120 250 -238 313 -48 25 -159 65 -196 70 -3 1 -301 1
-663 1 l-658 0 -154 313 c-84 171 -166 328 -181 348 -32 41 -107 84 -164 95
-64 12 -1830 11 -1889 -1z m924 -939 c230 -41 387 -90 565 -175 474 -226 826
-627 990 -1125 71 -214 96 -376 96 -611 1 -812 -531 -1548 -1301 -1803 -69
-22 -136 -43 -150 -46 -14 -2 -59 -11 -100 -20 -120 -24 -146 -27 -325 -31
-319 -7 -580 50 -871 190 -562 271 -947 786 -1055 1410 -26 151 -31 411 -10
560 34 253 128 522 258 739 96 160 255 346 406 474 201 171 489 324 721 383
104 27 216 49 276 55 36 3 67 8 70 10 6 7 389 -3 430 -10z m2432 -408 c155
-67 178 -262 40 -349 -69 -44 -100 -49 -303 -49 -213 0 -262 10 -326 65 -115
98 -86 266 57 332 44 21 154 29 339 25 120 -2 152 -6 193 -24z"/>
<path d="M3238 4726 c-1 -2 -55 -6 -118 -9 -203 -10 -407 -62 -599 -153 -448
-211 -788 -638 -889 -1115 -30 -138 -33 -170 -37 -319 -8 -331 86 -658 268
-930 208 -313 496 -532 857 -650 168 -55 294 -75 485 -75 220 0 312 13 490 67
342 104 646 326 861 628 33 46 21 37 -71 -56 -422 -425 -1045 -536 -1584 -283
-282 132 -538 388 -671 671 -22 47 -40 91 -40 97 0 6 -4 19 -9 29 -15 26 -38
108 -58 202 -25 117 -25 409 0 530 86 428 363 794 746 986 368 184 803 197
1181 35 173 -74 303 -164 444 -306 l89 -90 -63 85 c-282 374 -718 614 -1177
646 -43 3 -83 7 -90 9 -6 2 -13 2 -15 1z"/>
<path d="M3419 3939 c0 -8 -1 -50 -2 -94 l-2 -80 -172 1 c-95 0 -173 -2 -173
-4 0 -2 5 -12 10 -22 9 -17 24 -19 158 -19 81 0 154 0 163 0 12 -1 16 -15 17
-72 1 -39 4 -74 6 -78 2 -3 25 -5 50 -3 l46 4 -1 70 c-1 38 1 72 4 75 5 4 127
6 245 4 21 -1 22 -5 22 -76 l0 -75 50 0 50 0 0 75 0 75 78 0 c42 1 131 2 197
3 120 2 120 2 123 27 2 19 -10 38 -50 77 l-53 52 -46 -57 -46 -57 -99 0 -99 0
-3 46 c-3 45 -2 46 38 64 72 32 42 58 -82 71 l-57 6 -3 -93 -3 -94 -120 0
c-66 -1 -126 1 -132 3 -8 3 -13 22 -13 48 0 39 3 44 35 60 42 20 47 49 9 58
-15 4 -53 10 -85 13 -46 4 -59 2 -60 -8z"/>
<path d="M2731 3902 c-7 -12 4 -27 45 -65 36 -32 64 -71 85 -114 34 -71 62
-93 98 -74 41 23 40 106 -3 152 -32 35 -83 65 -156 94 -54 21 -61 22 -69 7z"/>
<path d="M3061 3517 c-52 -157 -176 -469 -236 -592 -60 -126 -78 -141 -162
-139 -49 1 -53 0 -53 -21 0 -18 7 -24 34 -29 49 -9 81 -38 95 -87 14 -47 15
-184 2 -274 -9 -62 3 -104 32 -106 6 0 20 -2 30 -4 10 -2 31 8 47 22 27 23 30
30 30 86 -1 34 -9 105 -19 157 -10 53 -16 108 -14 122 4 32 31 121 118 393
190 596 177 549 158 563 -9 6 -19 12 -22 12 -3 0 -21 -47 -40 -103z"/>
<path d="M4032 3543 l-29 -37 -344 1 -344 1 -49 26 c-27 14 -54 26 -60 26 -9
0 -13 -292 -7 -440 1 -12 13 -15 49 -15 45 0 47 1 48 30 1 17 2 33 3 38 1 4
67 6 149 5 l147 -3 2 -92 2 -93 -235 0 c-219 0 -235 -1 -232 -17 3 -16 24 -18
233 -23 l230 -5 -2 -80 c-2 -44 -5 -85 -7 -91 -3 -9 -77 -12 -271 -12 -146 0
-269 -2 -272 -6 -3 -3 -3 -12 0 -21 6 -13 41 -15 266 -15 l260 0 -11 -32 c-53
-154 -244 -301 -468 -359 -47 -13 -87 -24 -89 -26 -2 -1 4 -11 13 -22 17 -18
19 -18 104 0 263 57 435 167 515 331 17 37 35 67 38 67 3 1 23 -24 44 -55 104
-151 261 -254 476 -314 l67 -18 12 27 c6 15 22 39 36 55 14 15 24 29 23 30 -2
2 -53 13 -113 25 -219 44 -357 119 -486 264 l-24 28 264 -1 c146 0 275 0 287
0 13 0 24 8 28 21 6 17 -4 32 -51 76 l-58 55 -19 -24 c-11 -12 -31 -37 -46
-55 l-27 -31 -198 0 -198 0 6 37 c3 20 6 62 6 94 l0 57 245 0 c205 0 247 2
251 14 7 18 -15 48 -69 95 l-38 34 -45 -51 -46 -52 -148 0 -148 0 -1 95 -1 95
160 -1 160 -2 0 -29 c0 -27 2 -28 50 -28 l50 0 0 154 0 155 30 18 c17 9 30 22
30 27 0 11 -73 81 -99 96 -16 8 -24 4 -49 -27z m-436 -198 l-1 -120 -147 -3
c-136 -2 -148 -1 -149 15 -1 10 -2 63 -3 118 l-1 100 30 5 c17 3 85 5 151 5
l122 0 -2 -120z m424 -2 l0 -123 -159 0 -159 0 -1 117 c-1 64 3 119 8 122 5 3
77 6 160 6 l151 0 0 -122z"/>
<path d="M2611 3496 c-9 -11 -4 -20 23 -44 51 -44 91 -105 106 -157 15 -54 41
-72 81 -56 50 18 43 110 -11 166 -26 26 -162 105 -183 105 -2 0 -10 -6 -16
-14z"/>
</g>
</svg>
